# xmcd
#
# Track frame offsets: 
#        150
#        17680
#        35572
#        54997
#        70732
#        86757
#        112487
#        130737
#        148042
#        172100
#        194094
#        218545
#        240300
#        257722
#        278511
#        307974
#        325974
#
# Disc length: 4549 seconds
#
# Revision: 0
# Processed by: cddbd v1.5.2PL0 Copyright (c) Steve Scherf et al.
# Submitted via: ExactAudioCopy v0.95b4
#
DISCID=f811c311
DTITLE=Air Supply - Greatest Hits
DYEAR=1984
DGENRE=Power Ballad
TTITLE0=Lost In Love
TTITLE1=Even The Nights Are Better
TTITLE2=The One That You Love
TTITLE3=Every Woman In The World
TTITLE4=Chances
TTITLE5=Making Love Out Of Nothing AT All
TTITLE6=All Out Of Love
TTITLE7=Here I Am
TTITLE8=Sweet Dreams
TTITLE9=Without You
TTITLE10=The Power Of Love
TTITLE11=Rod Stewart - I don't wanna talk about it
TTITLE12=KC and The Sunshine Band - Please Don't Go
TTITLE13=Foreigner - Waiting for a girl like you
TTITLE14=Wham - Careless Whisper
TTITLE15=Wet Wet Wet - Love Is All Around
TTITLE16=Reo Speedwagon - Keep on lovin' you
EXTD=
EXTT0=
EXTT1=
EXTT2=
EXTT3=
EXTT4=
EXTT5=
EXTT6=
EXTT7=
EXTT8=
EXTT9=
EXTT10=
EXTT11=
EXTT12=
EXTT13=
EXTT14=
EXTT15=
EXTT16=
PLAYORDER=
